<svg width="1272" height="881" viewBox="0 0 1272 881" fill="none" xmlns="http://www.w3.org/2000/svg">
<g clip-path="url(#clip0_1_452)">
<path d="M401.952 769.56C402.461 758.112 397.373 751.243 387.451 747.936C373.205 743.357 356.923 748.19 347.765 760.147C340.896 769.051 331.737 772.613 320.798 773.63C308.587 774.648 296.121 775.666 283.91 776.683C280.603 776.938 279.077 776.429 277.55 772.867C272.208 758.875 257.453 749.462 242.443 749.462C230.741 749.462 218.784 748.954 207.081 747.936C199.958 747.427 193.089 744.374 186.729 740.813C182.405 738.269 181.641 732.926 183.168 728.347C185.966 719.698 188.256 711.048 190.037 702.144C190.545 700.109 190.8 697.819 193.598 697.819C196.142 697.819 196.651 699.854 197.16 701.635C199.449 707.486 201.739 713.338 204.283 719.443C206.573 725.04 212.678 727.838 218.529 726.566C223.617 725.294 225.398 721.733 224.381 716.645C223.109 710.03 218.275 705.706 214.713 700.363C212.169 696.547 209.88 692.731 208.862 688.152C207.081 679.502 203.011 671.616 199.449 663.475C196.142 656.098 190.545 651.264 183.931 647.448C180.115 645.158 177.571 642.106 176.553 637.781C174.009 625.061 165.869 615.139 158.745 604.963C147.806 589.19 137.376 572.909 125.165 557.899C117.278 548.486 109.646 538.819 102.777 528.389C102.269 527.626 101.505 527.117 100.997 526.608C88.2767 518.976 80.6447 506.765 71.4863 495.826C70.4687 494.808 69.9599 493.282 68.6879 492.518C61.8191 488.194 64.1087 482.851 66.3983 477.254C68.1791 472.675 69.7055 467.842 70.9775 463.262C73.0127 455.63 76.3199 449.016 83.9519 445.2C89.5487 442.147 89.8031 435.533 84.2063 431.971C68.4335 422.05 56.4767 408.058 43.2479 395.338C39.9407 392.03 39.9407 390.25 44.2655 388.723C48.8447 386.942 49.8623 383.89 47.8271 379.565C45.2831 373.968 42.9935 368.371 37.9055 364.301C32.0543 359.467 32.5631 351.581 30.0191 344.966C24.4223 330.72 29.2559 318.763 37.3967 307.315C42.2303 300.701 43.7567 293.832 41.7215 285.946C40.9583 282.384 39.4319 280.858 35.8703 280.603C27.7295 280.094 19.8431 282.638 11.7023 283.147C7.88626 283.402 6.61426 282.638 6.61426 278.822C6.86866 268.646 6.86866 258.216 6.86866 248.04C6.86866 243.461 9.92146 240.917 13.4831 241.171C26.7119 241.426 35.8703 233.794 45.2831 226.416C57.2399 217.003 68.6879 207.082 75.3023 192.835C80.1359 182.659 85.4783 172.483 81.4079 160.526C80.3903 157.474 81.9167 155.438 85.2239 155.947C97.4351 157.982 105.067 149.842 113.462 142.973C121.094 136.867 125.419 128.218 131.016 120.586C134.069 116.515 137.63 113.208 141.955 111.682C152.131 108.12 162.307 103.286 173.755 104.813C180.878 105.83 186.729 103.795 192.326 99.216C202.757 90.8208 211.406 90.312 223.363 97.1808C224.889 97.944 226.161 98.9616 226.416 100.488C231.504 119.822 243.969 135.086 255.163 150.859C266.865 167.141 273.225 185.203 276.024 204.792C277.296 214.459 273.734 223.872 269.409 232.776C267.629 236.338 266.865 239.899 267.12 243.97C267.883 253.637 266.357 263.304 270.427 272.717C272.462 277.805 275.261 282.13 278.568 286.2C283.91 293.069 282.638 299.174 278.568 305.789C278.059 306.806 277.55 307.57 276.787 308.333C263.813 320.29 267.374 334.536 272.208 348.019C275.261 357.178 283.656 362.011 293.323 363.538C296.376 364.046 299.174 362.266 300.955 359.722C303.753 355.906 305.789 351.581 307.315 347.002C310.622 336.571 314.947 326.395 321.561 317.491C328.176 308.333 337.843 307.061 343.694 316.474C351.581 329.448 364.301 336.571 374.985 346.238C380.837 351.326 382.617 357.941 385.416 364.301C388.977 372.187 395.083 374.477 402.206 369.643C412.637 362.774 422.813 355.397 433.243 348.274C435.024 347.002 436.805 345.73 438.84 345.475C443.673 344.712 444.691 345.984 444.437 350.818C443.928 359.213 443.928 367.354 443.928 375.749C443.928 380.074 442.91 381.346 438.331 380.328C428.664 377.784 427.646 378.547 423.067 387.451C418.997 395.592 415.435 404.242 412.637 412.891C411.619 416.453 409.584 417.979 406.277 417.725C405.513 417.725 404.496 417.979 403.733 417.725C390.504 414.926 382.363 422.304 375.494 431.971C372.441 436.296 372.441 440.621 375.749 444.946C378.547 448.253 381.345 451.306 383.635 454.867C386.179 458.938 388.723 462.499 394.32 461.736C395.592 461.482 396.864 462.245 397.373 463.517C399.662 468.859 403.478 472.93 407.549 477C408.312 477.763 408.566 478.781 408.566 479.798C407.294 486.158 408.821 492.773 405.768 499.133C403.224 504.73 405.259 510.835 406.277 516.432C408.057 526.862 409.584 537.293 412.128 547.723C414.417 556.882 422.049 561.206 427.646 567.312C428.664 568.33 429.936 568.075 431.208 567.566C432.225 567.058 433.497 566.294 434.515 565.786C437.822 564.259 440.366 560.189 444.182 560.952C447.998 561.715 447.744 566.549 449.525 569.347C452.323 573.418 456.902 574.69 460.973 576.47C466.315 578.76 468.096 581.558 466.569 587.41C465.043 593.006 466.061 593.77 471.657 591.48C472.929 590.971 473.947 590.717 475.219 590.208C477.763 589.19 480.816 587.41 483.105 587.918C485.649 588.427 484.886 592.498 485.649 594.787C486.667 597.331 488.702 599.112 490.992 599.366C493.536 599.621 493.79 596.568 494.553 594.787C495.825 590.717 498.369 588.427 502.44 586.901C512.616 583.085 522.792 579.014 532.968 574.944C535.512 573.926 538.056 573.163 540.6 572.654C556.118 569.602 562.478 574.944 564.768 589.699C565.531 594.278 566.549 599.112 566.549 603.946C566.549 610.56 570.619 614.122 574.435 618.446C585.12 630.658 598.857 627.096 611.832 626.587C619.209 626.333 626.587 626.078 633.965 626.333C638.035 626.333 643.886 631.166 644.141 634.219C644.904 640.07 643.377 644.141 637.017 645.413C622.771 648.211 610.814 658.387 595.805 658.387C593.515 658.387 591.48 659.405 589.953 661.694C587.155 666.274 583.085 666.782 578.505 666.019C573.672 665.256 568.838 664.493 563.75 664.238C558.917 663.984 555.864 665.51 554.337 670.09C552.302 676.195 548.995 678.739 541.872 677.722C532.205 676.195 522.029 677.976 512.361 676.45C509.309 675.941 507.528 677.976 509.563 680.52C515.16 687.643 511.344 693.749 507.782 699.854C498.624 715.627 489.465 731.4 480.561 747.173C478.781 750.48 477.254 751.752 473.438 749.462C469.113 747.173 464.025 748.699 461.481 752.261C454.613 762.437 444.437 763.963 433.752 764.981C432.225 765.235 430.445 764.981 428.918 764.981C419.76 764.218 409.838 761.419 401.952 769.56Z" fill="#ABFF96" stroke="#182640" stroke-width="0.636" stroke-miterlimit="10"/>
<path d="M447.744 348.664C454.867 355.532 463.516 359.094 472.929 361.129C474.71 361.638 475.473 362.401 476.491 363.928C478.78 367.489 481.324 370.796 483.614 374.358C489.72 384.534 500.15 386.569 510.326 388.096C518.721 389.622 524.318 384.025 529.152 378.428C533.731 373.086 537.801 367.744 545.942 367.998C548.232 367.998 549.249 365.708 550.267 363.928C552.048 360.62 554.083 357.568 557.136 355.278C560.188 352.988 562.478 352.988 564.004 357.059C565.022 360.112 566.548 362.91 567.566 365.963C568.584 369.27 570.619 370.796 573.926 370.033C577.233 369.27 580.032 368.252 580.795 364.436C581.049 363.164 581.049 361.892 580.795 360.62C579.523 350.19 588.427 347.137 595.55 350.19C604.708 354.006 610.051 360.366 612.595 370.542C616.156 385.043 614.121 399.035 612.34 413.027C612.34 413.536 612.086 414.044 612.086 414.553C611.832 419.132 610.814 424.22 615.648 427.019C620.736 430.072 626.078 428.036 630.657 424.984C643.123 417.097 648.72 405.14 650.5 390.894C651.264 384.28 652.79 378.174 659.15 374.358C666.273 370.288 671.361 370.033 677.467 375.884C685.608 383.516 692.985 391.657 692.731 404.123C692.731 410.483 693.494 417.097 696.038 423.203C696.292 423.966 696.547 424.984 696.038 425.747C692.731 433.124 692.476 441.265 689.424 448.643C685.353 457.801 686.116 466.451 691.713 474.337C698.582 483.75 700.872 493.672 701.126 505.12C701.635 517.076 701.635 528.779 701.889 540.481C701.889 543.534 702.652 546.078 704.179 548.622C707.232 553.201 707.486 558.289 707.995 563.377C708.758 571.009 701.126 576.097 692.731 574.316C689.932 573.808 687.388 571.264 684.081 573.044C678.739 575.843 672.888 577.878 669.58 583.22C668.563 585.001 667.036 586.528 665.51 588.054C662.966 590.598 662.203 593.651 662.712 597.212C665.001 611.459 660.676 617.564 647.193 622.144C640.579 624.179 634.219 624.942 627.35 624.688C615.139 624.433 602.928 626.214 590.716 625.705C586.646 625.451 583.593 623.924 580.286 621.889C569.347 615.784 568.329 605.608 567.057 594.923C566.548 590.852 565.785 587.036 564.768 582.966C561.206 571.518 550.012 568.72 541.872 570.755C526.353 574.825 511.852 581.44 497.352 587.545C494.553 588.817 493.536 591.616 492.518 594.16C492.009 595.686 491.5 597.467 489.465 596.958C487.684 596.449 486.921 595.177 486.667 593.396C484.886 585.001 484.886 585.001 476.491 588.054C475.982 588.308 475.473 588.308 474.964 588.563C468.35 591.107 468.096 591.107 469.113 584.238C469.622 580.676 468.604 578.387 465.297 577.115C463.262 576.352 461.227 574.825 459.192 574.062C453.34 572.027 450.033 567.956 447.998 562.105C445.963 556.508 445.2 556.763 439.857 559.561C436.041 561.851 431.971 567.448 428.155 565.158C422.304 561.851 416.707 557.017 414.672 550.148C410.347 535.139 408.057 519.875 406.531 504.356C406.276 502.321 406.531 500.032 407.548 498.251C410.856 492.4 409.329 485.785 409.584 479.425C409.584 478.662 409.329 477.644 408.82 476.881C404.241 472.302 400.934 467.214 397.627 461.617C397.372 460.854 396.1 460.091 395.592 460.091C386.179 461.108 384.398 452.204 379.31 447.625C378.292 446.608 377.529 445.336 376.766 444.318C374.731 442.283 374.476 439.739 374.731 436.94C375.494 430.835 387.705 420.15 394.065 420.15C397.881 420.15 401.952 420.404 405.768 420.404C410.092 420.404 412.891 418.624 414.163 414.044C416.961 405.14 420.523 396.491 424.593 388.096C428.155 381.227 428.409 380.718 436.041 382.499C445.2 384.534 445.708 384.025 445.708 374.612C445.708 368.507 445.963 362.147 445.963 356.041C445.963 354.26 445.963 351.716 447.744 348.664Z" fill="#ABFF96" stroke="#182640" stroke-width="0.636" stroke-miterlimit="10"/>
<path d="M518.976 677.467C527.116 679.757 537.292 677.213 546.96 679.248C550.521 680.011 552.556 678.23 553.32 675.178C555.864 666.528 561.715 664.239 569.856 665.765C572.4 666.274 575.198 666.528 577.742 667.291C582.83 668.563 587.664 668.055 590.716 663.221C592.497 660.423 595.296 659.914 598.094 659.659C605.726 659.15 612.595 656.861 619.209 653.299C623.534 650.755 628.113 649.229 633.201 648.466C640.579 647.448 644.395 643.632 645.921 637.272C647.448 630.149 657.369 624.806 663.984 627.859C671.87 631.421 680.774 631.675 687.897 637.272C691.204 640.07 696.038 640.579 700.109 636C703.161 632.693 708.249 632.947 712.829 633.456C717.408 633.965 721.987 634.219 726.057 636.509C730.636 638.798 735.47 637.272 740.049 637.272C745.9 637.272 750.734 637.781 754.296 643.123C757.094 647.448 761.419 649.483 767.016 649.229C771.086 649.229 775.411 650.501 779.481 651.518C784.569 653.045 788.894 651.773 792.201 648.466C796.78 644.141 801.614 644.395 806.956 645.158C812.808 646.176 818.15 646.939 822.729 641.342C825.273 638.035 830.361 638.798 834.432 640.07C842.827 642.36 851.222 642.869 860.126 641.342C867.504 640.07 875.39 643.123 883.276 643.123C885.312 643.123 885.312 644.904 884.294 646.176C883.276 647.957 881.496 649.483 879.46 650.246C870.556 654.062 861.907 658.896 852.494 661.186C844.608 663.221 838.248 667.291 833.16 673.397C830.107 677.213 826.291 678.994 821.712 679.248C816.624 679.502 812.808 682.046 808.992 685.099C805.939 687.643 802.886 689.933 808.228 693.494C810.772 695.275 808.483 696.293 806.956 697.31C799.833 702.144 792.964 706.723 785.078 710.285C779.736 712.829 779.227 714.101 783.552 718.171C792.71 727.33 796.017 738.778 799.579 750.48C800.596 754.55 799.579 756.077 795.763 757.349C787.113 760.402 778.464 763.709 769.814 767.016C768.033 767.779 765.744 768.034 764.472 769.306C757.857 775.666 749.462 777.955 740.813 778.21C728.347 778.718 718.934 785.078 710.285 792.456C698.582 802.378 684.59 807.466 670.089 810.264C663.475 811.536 658.641 814.589 655.589 820.186C652.281 826.037 647.702 829.09 641.342 830.616C633.71 832.397 626.587 835.704 619.209 837.994C615.648 839.266 613.358 841.555 611.323 844.608C608.016 849.95 604.708 855.039 601.401 860.381C600.129 862.671 598.603 862.925 596.822 861.399C586.392 853.512 573.672 848.678 566.04 836.722C563.241 832.142 557.136 831.125 552.302 829.344C539.073 824.256 526.608 817.387 515.668 808.483C511.344 804.922 506.256 802.632 500.404 801.615C488.193 799.325 475.982 796.018 463.262 797.035C458.937 797.29 457.156 796.272 458.174 791.439C459.446 786.096 460.718 781.262 464.025 776.938C475.219 762.437 481.579 745.138 491.246 729.619C498.878 717.154 505.747 704.179 513.124 691.459C514.651 688.661 514.905 686.371 513.379 683.573C510.58 677.467 510.835 677.467 518.976 677.467Z" fill="#ABFF96" stroke="#182640" stroke-width="0.636" stroke-miterlimit="10"/>
<path d="M943.061 140.938C943.824 150.096 942.043 158.237 944.841 166.378C945.604 168.667 946.368 170.702 947.64 172.483C952.219 178.589 951.201 183.422 944.333 187.238C937.718 190.8 937.209 194.87 942.552 200.467C949.166 207.336 956.035 213.442 965.193 216.749C969.009 218.275 971.044 220.819 970.281 225.398C969.518 229.978 971.045 234.302 972.317 238.627C975.115 249.312 979.185 259.234 984.528 268.901C985.8 271.19 985.291 274.243 985.291 276.787C985.291 282.13 985.291 287.472 987.326 292.56C988.598 295.613 987.326 296.63 984.273 297.139C977.659 297.648 971.299 298.666 964.685 299.429C961.632 299.683 958.833 300.192 958.07 304.008C957.052 308.078 958.833 310.114 961.632 311.894C964.939 313.93 968.246 316.982 972.825 315.456C973.588 315.202 974.86 315.71 975.115 316.219C975.878 317.237 974.86 318.254 974.097 319.018C960.105 334.536 954.763 353.616 952.982 373.968C952.728 376.258 953.236 378.802 949.675 378.802C946.876 378.802 944.332 378.293 943.569 374.986C943.06 373.205 943.06 371.17 942.552 369.134C941.788 365.573 940.262 363.029 936.192 362.266C932.63 361.757 930.595 362.266 930.595 366.336C930.595 368.117 930.595 370.152 929.069 371.17C924.489 374.731 924.489 379.056 925.253 384.398C926.779 394.574 924.235 404.751 922.709 414.927C922.2 418.743 922.454 422.304 922.963 425.866C923.472 428.918 924.998 430.445 928.051 431.208C936.446 433.243 941.28 439.094 943.061 447.235C944.333 453.341 942.297 456.902 936.192 457.92C930.086 458.938 923.726 458.175 917.621 458.175C904.901 458.429 896.76 469.114 900.83 481.579C902.356 485.904 901.084 488.194 898.032 490.738C891.672 495.826 886.075 501.677 880.478 507.783C876.153 512.362 872.337 513.634 865.723 511.344C860.635 509.563 858.6 505.238 857.837 500.405C857.328 498.115 857.582 495.571 857.073 493.027C856.31 489.211 854.529 486.413 850.968 484.887C847.152 483.36 846.388 480.562 846.897 476.491C848.424 466.315 849.187 456.139 850.205 445.963C850.713 440.112 853.257 434.77 855.293 429.427C856.565 426.12 859.109 426.12 861.653 425.866C872.337 424.594 871.828 424.339 872.592 413.655C872.846 407.803 874.372 401.698 875.39 395.846C876.662 388.469 878.189 381.346 879.461 373.968C880.224 369.389 877.934 365.064 877.425 360.485C876.662 353.87 875.39 347.256 874.627 340.642C874.118 336.062 871.574 332.755 869.03 329.448C865.977 325.632 862.67 321.816 859.617 318C857.836 315.965 856.819 313.166 857.328 310.622C858.854 302.99 855.293 297.394 850.205 292.814C844.353 287.726 843.59 281.112 844.353 274.498C845.116 266.357 844.608 258.216 844.862 250.075C844.862 247.531 844.353 245.496 841.555 244.478C839.265 243.715 835.958 243.715 835.704 240.662C835.449 236.846 835.704 232.522 838.248 229.469C839.774 227.434 840.537 225.653 841.301 223.618C841.809 221.837 842.827 219.547 844.099 218.784C849.95 214.968 853.003 209.626 855.801 203.52C857.073 200.467 858.854 198.941 862.925 200.722C867.758 202.757 870.302 201.23 871.065 195.888C873.1 185.203 877.68 176.299 885.821 168.922C889.382 165.614 890.908 161.29 892.435 156.965C893.198 154.675 892.435 152.894 891.163 150.859C889.128 147.806 887.601 144.245 885.312 141.446C881.241 136.358 881.496 131.525 884.549 126.182C888.619 118.805 891.163 110.918 893.453 103.032C897.269 90.0576 885.566 73.2672 872.337 72.2496C868.521 71.9952 864.705 71.4864 860.635 71.232C857.328 70.9776 854.784 69.96 854.021 66.3984C853.257 62.8368 854.275 59.784 858.091 58.2576C860.126 57.4944 862.161 56.4768 864.197 56.2224C873.864 54.9504 879.969 48.8448 884.549 40.9584C889.891 32.0544 894.216 22.3872 903.12 16.0272C908.208 12.4656 921.436 10.4304 926.779 13.7376C930.595 16.0272 931.104 20.352 929.323 23.6592C922.708 35.1072 924.998 47.5728 923.981 59.784C923.981 61.056 923.98 62.328 924.489 63.3456C930.34 75.048 923.472 83.4432 917.366 92.3472C913.55 97.944 908.208 102.778 906.173 109.392C904.901 112.954 905.155 116.515 906.681 119.568C909.48 124.656 911.006 130.762 916.857 134.069C920.673 136.358 924.489 135.086 926.016 130.762C927.542 126.437 927.542 122.366 924.744 118.296C919.91 111.173 922.708 104.558 930.849 102.523C934.92 101.506 938.481 102.523 939.499 107.102C941.534 118.55 945.859 129.998 943.061 140.938Z" fill="#ABFF96" stroke="black" stroke-width="0.636" stroke-miterlimit="10"/>
<path d="M737.251 422.559C737.251 427.647 737.505 431.717 737.251 435.787C736.997 443.674 735.979 451.306 730.382 457.411C726.312 461.991 727.329 468.096 726.821 473.693C726.057 481.071 727.075 488.448 726.057 495.826C725.04 502.44 723.005 508.546 719.952 514.397C719.189 515.669 718.68 516.941 718.425 518.213C717.917 519.739 718.68 522.283 716.136 522.283C714.101 522.283 713.846 519.994 712.829 518.467C710.793 515.669 711.048 510.072 704.942 512.107C703.67 512.616 703.67 510.835 703.416 509.818C702.398 506.256 702.653 502.44 702.653 498.624C702.653 489.72 700.363 481.579 694.766 474.456C688.406 466.061 686.88 457.157 690.95 447.235C693.24 441.639 694.257 435.279 695.784 429.427C696.547 426.375 698.328 424.848 701.889 425.611C706.723 426.629 710.539 424.594 714.101 421.287C719.952 415.944 725.549 410.856 726.312 402.461C726.821 398.645 729.11 395.338 730.891 391.776C735.216 383.127 738.523 374.477 739.032 364.555C739.795 349.546 746.664 336.317 752.769 323.088C756.84 313.93 753.533 305.789 744.12 302.227C735.47 298.92 733.181 295.359 735.979 286.455C738.523 279.077 739.032 272.463 736.233 264.831C733.689 258.216 738.014 252.619 742.593 248.549C747.173 244.224 752.515 240.663 755.822 235.066C758.366 230.995 761.928 232.267 764.981 234.557C769.56 237.61 774.139 240.663 780.245 238.627C782.025 237.864 784.061 237.61 785.333 236.083C792.965 227.943 804.667 231.25 811.027 238.627C813.062 240.917 815.097 243.207 817.133 245.242C821.457 249.058 825.782 249.312 830.616 246.514C837.23 242.698 841.809 245.242 842.318 252.619C843.081 262.541 840.537 272.208 842.064 282.13C842.827 286.2 844.353 289.507 847.406 292.306C852.749 297.394 856.565 302.991 855.038 310.877C854.529 313.93 855.547 316.474 857.837 318.509C860.126 321.053 862.161 324.106 864.705 326.65C870.557 333.01 873.864 340.387 873.355 349.291C873.355 350.818 873.609 352.599 874.118 353.871C878.952 369.643 875.899 384.907 872.337 400.426C871.065 406.277 869.539 412.128 870.048 418.234C870.302 421.287 869.285 423.831 865.723 423.067C857.073 421.795 853.512 426.375 850.968 433.752C848.424 440.875 847.406 448.253 846.897 455.631C846.389 463.008 845.117 470.386 844.353 477.763C844.099 481.579 842.318 484.378 839.265 486.667C832.397 492.264 826.8 498.624 827.563 508.291C827.817 510.327 826.545 511.599 825.019 512.616C820.185 515.669 814.334 516.687 808.737 516.687C805.685 516.687 804.158 513.888 804.158 511.09C803.395 502.949 798.816 497.098 793.219 491.755C790.929 489.466 788.894 486.922 787.113 484.378C785.587 482.088 783.806 480.307 781.008 479.544C779.736 479.29 778.464 478.781 777.955 477.509C776.174 472.675 773.121 469.623 767.779 468.859C765.489 468.605 765.235 465.552 766.253 463.517C769.814 456.394 768.797 449.016 767.779 441.639C767.779 441.384 767.525 440.875 767.525 440.621C767.016 431.717 765.235 428.155 759.384 421.032C756.331 417.471 754.041 413.4 751.752 409.584C749.717 406.531 747.173 403.987 744.629 401.952C741.576 399.408 739.541 400.171 738.523 403.987C736.742 410.856 737.505 417.216 737.251 422.559Z" fill="#ABFF96" stroke="#182640" stroke-width="0.636" stroke-miterlimit="10"/>
<path d="M920.419 459.955C925.253 460.718 931.867 461.736 938.227 459.701C943.569 458.174 946.114 454.867 945.35 449.27C944.078 439.349 938.482 432.989 929.832 429.682C926.016 428.155 924.489 426.12 924.489 422.304C924.489 417.979 923.981 413.4 925.253 409.075C928.306 399.662 928.051 389.995 926.779 380.328C926.525 377.784 927.034 375.749 928.814 374.222C930.341 372.696 932.376 371.17 932.63 368.626C932.885 367.099 932.63 364.555 935.174 364.81C937.464 365.064 939.245 366.336 939.753 368.626C940.008 370.152 940.008 371.678 940.262 373.459C941.28 379.565 943.569 381.346 949.929 381.346C955.781 381.091 954.509 376.258 954.763 373.205C956.289 355.397 961.123 338.861 971.553 324.36C971.808 324.106 972.062 323.851 972.062 323.597C973.589 321.053 977.913 319.526 976.387 315.71C974.861 311.64 971.045 314.693 968.501 314.184C965.194 313.421 962.141 311.64 959.851 309.096C957.307 306.298 959.342 302.227 963.667 302.227C970.281 301.973 976.641 300.701 983.001 299.938C989.107 299.174 989.616 298.411 988.089 292.56C987.072 288.744 986.054 284.928 986.563 281.112C987.581 272.971 984.782 265.848 980.458 259.234C978.168 255.926 976.387 252.365 976.387 248.549C976.133 241.934 970.027 236.592 971.553 229.978C973.589 220.31 967.992 216.749 960.869 213.696C953.491 210.643 948.149 204.792 942.552 199.45C939.245 196.142 940.262 192.326 944.587 190.037C952.982 185.712 954 180.37 948.657 172.229C946.368 168.667 945.35 164.342 945.35 160.018C945.096 149.078 945.35 138.139 945.35 127.2C945.35 125.419 945.859 123.893 947.894 123.13C951.965 121.858 953.491 118.296 953.745 114.48C954.254 108.883 954.509 103.286 954.763 97.6896C955.017 95.9088 954 93.3648 956.544 92.856C959.088 92.3472 960.869 93.8736 961.886 96.4176C965.702 104.558 969.773 112.699 973.589 120.84C975.37 124.402 977.405 127.454 980.458 129.998C989.616 137.122 996.994 145.771 1002.59 155.947C1004.88 160.018 1005.39 163.834 1004.63 168.158C1003.86 171.72 1002.84 175.282 1002.34 179.098C1001.57 184.44 1005.13 188.256 1010.48 187.493C1015.82 186.73 1021.42 185.712 1024.21 179.861C1024.72 178.843 1025.23 178.08 1026.25 177.317C1028.28 176.045 1029.81 173.501 1032.61 174.518C1035.66 175.536 1036.68 178.589 1036.68 181.387C1036.68 183.931 1035.92 186.73 1035.41 189.274C1033.63 198.178 1035.66 206.064 1041.26 213.187C1046.86 220.565 1052.2 227.942 1060.59 232.522C1061.36 233.03 1062.12 233.539 1062.88 233.794C1069.75 236.846 1069.5 236.846 1067.21 243.97C1062.63 257.707 1056.01 270.173 1044.82 279.84C1043.8 280.858 1042.53 281.875 1042.02 283.147C1038.21 295.104 1029.05 304.262 1025.23 316.219C1023.2 322.834 1020.91 329.702 1019.13 336.571C1018.11 340.642 1020.65 343.186 1024.21 343.949C1031.85 345.475 1036.93 348.528 1033.88 357.432C1033.12 359.722 1035.66 360.994 1036.93 362.52C1042.79 370.406 1048.13 378.293 1048.89 388.469C1049.15 392.03 1048.38 395.338 1046.35 398.645C1041.26 407.294 1037.19 416.198 1037.19 426.629C1037.19 432.48 1037.7 438.331 1044.06 441.384C1046.6 442.656 1047.11 445.454 1046.35 447.998C1045.58 450.542 1043.29 448.762 1041.77 448.507C1033.88 447.744 1021.42 453.85 1017.85 460.973C1012.77 471.403 1005.64 480.053 998.011 488.448C994.704 492.01 989.87 491.755 985.545 491.755C974.352 491.755 963.413 490.483 952.219 490.738C937.973 491.246 923.726 488.957 909.48 488.448C903.12 488.194 900.067 483.614 900.83 477.254C903.883 463.262 907.19 459.955 920.419 459.955Z" fill="#ABFF96" stroke="#182640" stroke-width="0.636" stroke-miterlimit="10"/>
<path d="M1044.06 365.573C1048.13 367.354 1051.69 368.117 1054.49 370.152C1061.87 374.731 1070.77 373.968 1078.66 377.275C1080.44 378.038 1082.47 377.275 1084.25 376.258C1085.27 375.494 1086.54 374.986 1087.31 374.222C1096.72 363.538 1107.91 367.099 1119.36 369.643C1131.83 372.187 1141.49 379.31 1151.92 385.67C1155.74 387.96 1159.56 390.25 1163.63 392.03C1166.42 393.048 1167.44 394.574 1164.9 396.864C1155.23 405.768 1150.91 418.997 1140.22 427.138C1138.44 428.41 1137.93 430.699 1137.93 432.989C1137.68 440.875 1134.62 447.744 1129.28 453.341C1129.28 453.595 1129.03 453.595 1129.03 453.85C1122.16 465.806 1111.73 473.693 1100.28 480.562C1094.17 484.378 1089.85 489.72 1088.58 497.352C1087.56 502.694 1084.25 506.51 1079.67 509.309C1074.59 512.362 1070.26 515.923 1068.73 522.283C1068.23 524.827 1066.44 526.862 1064.41 528.898C1063.14 530.17 1061.61 531.442 1061.61 533.222C1062.12 539.328 1059.07 539.328 1054.74 537.547C1051.18 536.275 1048.64 537.293 1046.09 539.582C1040.75 544.925 1035.92 551.03 1027.27 551.539C1025.49 551.794 1024.21 553.829 1022.94 555.355C1019.89 558.917 1017.35 563.242 1012.77 565.022C1011.49 565.531 1010.48 566.803 1010.48 568.33C1010.22 573.672 1006.92 575.453 1002.08 575.707C995.722 575.962 991.651 581.558 985.546 582.576C984.274 582.83 983.002 583.848 981.984 583.594C972.062 581.05 969.264 589.19 965.448 595.042C962.904 598.858 960.869 602.165 955.526 600.893C953.237 600.384 951.71 599.366 952.474 596.822C953.237 593.006 951.456 591.734 948.149 591.226C936.955 589.19 933.139 584.611 932.885 573.163C932.63 567.821 932.376 563.242 936.955 558.662C941.789 553.574 937.718 545.942 930.595 545.179C923.981 544.67 921.946 542.381 922.2 535.766C922.2 531.442 922.454 527.371 922.709 523.046C923.472 512.616 922.454 502.694 917.875 493.027C916.603 490.229 917.621 488.957 920.419 489.211C939.499 491.755 958.579 490.738 977.405 492.01C983.51 492.518 989.87 492.01 995.976 490.992C997.757 490.738 999.029 489.466 1000.3 488.194C1007.93 479.798 1015.31 471.403 1020.4 460.973C1023.96 453.595 1035.66 447.998 1043.55 449.016C1045.84 449.27 1049.4 451.051 1050.16 447.998C1050.93 444.691 1050.93 439.858 1047.11 438.077C1041.51 435.278 1040.75 430.699 1040.5 425.357C1040.24 415.181 1043.55 406.277 1048.89 397.882C1053.47 390.758 1052.2 383.89 1049.15 376.766C1047.62 373.714 1045.33 370.406 1044.06 365.573Z" fill="#ABFF96" stroke="#182640" stroke-width="0.636" stroke-miterlimit="10"/>
<path d="M1063.14 542.635C1062.88 535.258 1064.92 531.187 1067.46 526.354C1072.04 518.213 1077.64 512.107 1084.76 506.51C1087.05 504.73 1089.6 502.186 1089.85 499.133C1090.87 487.176 1099.77 481.834 1108.68 476.491C1115.04 472.675 1120.38 468.096 1124.45 461.99C1129.03 455.122 1135.64 449.779 1138.19 441.384C1138.44 440.112 1139.46 439.094 1139.2 437.822C1138.19 429.936 1142.76 425.357 1147.85 420.778C1151.67 417.47 1154.21 413.4 1156.76 409.075C1160.83 401.952 1166.17 396.355 1173.8 392.285C1181.43 388.214 1187.54 381.854 1194.66 376.766C1202.8 370.915 1210.94 371.678 1219.34 374.986C1224.94 377.275 1229.77 378.547 1235.88 375.494C1241.73 372.442 1246.56 377.784 1250.38 381.6C1253.94 385.162 1255.72 389.995 1256.48 395.338C1257.5 404.496 1258.77 413.909 1260.81 423.067C1262.84 432.48 1262.84 442.402 1264.62 451.814C1265.64 457.157 1266.91 461.99 1269.46 466.824C1274.54 475.474 1270.73 486.922 1261.32 491.501C1255.72 494.299 1249.36 494.808 1243.51 496.589C1237.91 498.37 1235.62 504.475 1239.44 509.054C1242.24 512.362 1245.29 515.414 1249.1 517.195C1252.67 518.976 1252.16 520.757 1250.12 523.301C1245.54 528.898 1239.18 531.95 1232.57 534.749C1231.3 535.258 1229.77 535.512 1228.5 535.766C1218.58 537.547 1218.07 538.565 1222.9 547.723C1224.68 551.03 1224.17 554.338 1220.87 555.864C1214 559.426 1211.45 565.022 1211.45 572.146C1211.45 574.435 1210.69 576.725 1208.4 576.979C1205.35 577.488 1206.11 574.435 1205.6 572.909C1202.29 561.461 1198.48 550.013 1194.15 538.819C1191.36 531.442 1189.83 530.424 1181.94 532.205C1179.14 532.968 1177.11 532.714 1174.56 531.187C1169.48 528.389 1164.13 530.933 1162.86 536.53C1160.83 545.179 1159.3 553.829 1156.25 562.224C1155.48 564.005 1154.98 566.04 1154.21 567.566C1153.2 569.347 1152.43 571.891 1149.89 571.382C1147.6 570.874 1148.11 568.33 1147.09 566.549C1143.78 559.68 1146.58 553.32 1148.87 547.214C1151.16 541.109 1149.63 535.258 1148.87 529.406C1148.36 525.59 1144.8 524.827 1141.24 525.845C1137.17 527.117 1134.12 526.608 1131.06 522.792C1126.74 517.704 1121.65 519.23 1119.87 526.099C1119.11 529.152 1118.6 532.459 1117.83 535.512C1116.82 539.074 1114.78 539.837 1111.98 537.547C1109.69 535.766 1107.4 534.24 1105.62 531.95C1103.33 528.898 1100.53 525.845 1096.46 527.117C1092.39 528.389 1088.58 531.187 1087.81 535.766C1086.29 545.179 1082.47 553.574 1078.15 561.97C1076.88 564.259 1076.37 567.566 1072.8 566.549C1069.24 565.786 1065.43 565.022 1064.41 560.443C1063.39 553.829 1063.65 547.214 1063.14 542.635Z" fill="#ABFF96" stroke="#182640" stroke-width="0.636" stroke-miterlimit="10"/>
<path d="M740.05 423.067C740.05 417.725 739.795 412.383 740.05 407.04C740.304 403.224 742.085 402.461 745.138 405.005C749.462 408.567 751.498 413.909 754.805 418.234C757.349 421.541 759.638 424.848 763.2 426.883C766.507 428.664 767.525 431.208 766.253 434.77C764.981 438.331 765.49 441.893 766.253 445.709C767.525 450.543 767.27 455.376 765.235 460.21C761.928 468.096 762.691 469.877 770.832 472.421C772.358 472.93 773.376 473.693 773.885 474.965C775.666 478.527 779.481 480.307 781.771 482.851C789.149 490.992 799.834 497.098 801.106 509.818C801.614 513.379 803.649 515.669 805.939 518.213C812.553 525.845 817.387 534.24 816.115 544.925C815.606 548.487 813.826 549.759 810.518 549.759C806.702 549.759 802.886 549.25 799.07 551.031C796.272 552.303 794.237 554.083 794.746 557.391C795.254 563.242 792.965 568.075 788.894 571.637C780.245 579.269 782.026 590.717 786.096 598.858C787.622 601.911 789.403 604.709 790.93 607.762C793.219 613.359 794.746 619.21 792.202 625.315C790.421 629.895 790.166 634.219 792.965 638.544C795.763 642.869 793.982 645.667 789.912 647.957C785.842 650.247 781.771 650.247 777.701 648.975C772.867 647.448 768.288 646.431 763.2 646.431C758.366 646.431 756.331 642.36 753.787 639.307C751.752 636.509 749.208 634.728 745.901 634.983C735.47 635.746 725.803 633.711 715.627 631.421C709.013 629.895 702.907 631.167 697.31 635.746C694.003 638.29 689.678 636.763 687.134 634.474C680.011 628.623 670.853 629.386 662.966 625.315C659.15 623.28 654.062 626.587 649.738 628.114C648.211 628.623 646.685 629.386 645.158 629.64C643.378 629.895 641.597 628.623 641.088 626.842C640.579 624.552 642.869 624.298 644.141 624.043C647.957 623.026 651.264 621.499 654.826 619.719C663.73 615.139 666.782 607.507 665.002 598.603C662.966 588.936 669.581 584.103 675.178 579.269C679.502 575.453 684.845 572.655 692.222 574.944C698.837 577.234 704.942 574.69 708.504 567.821C711.302 562.224 710.03 556.119 707.486 551.539C701.635 540.855 704.434 529.661 703.67 518.722C703.67 516.687 704.688 515.415 706.723 514.651C709.013 513.888 709.267 516.178 710.03 517.45C711.302 519.485 712.32 522.029 713.846 523.81C716.136 526.354 719.698 525.845 720.461 522.538C722.242 512.616 728.856 504.221 729.11 493.791C729.11 487.939 729.365 482.088 729.365 476.237C729.619 468.096 729.874 460.21 735.725 453.341C739.795 448.507 739.286 442.147 739.795 436.042C740.049 431.717 739.795 427.647 739.795 423.322C739.795 423.067 739.795 423.067 740.05 423.067Z" fill="#ABFF96" stroke="#182640" stroke-width="0.636" stroke-miterlimit="10"/>
<path d="M919.91 522.792C919.91 527.625 919.91 531.95 919.91 536.275C919.91 543.398 922.709 546.705 929.577 547.723C936.192 548.741 938.736 555.101 933.902 559.68C927.288 566.04 930.341 573.417 931.613 580.032C932.885 587.409 938.227 592.243 946.368 593.006C948.149 593.261 950.438 593.515 950.184 596.313C949.929 598.603 949.675 600.638 946.877 600.893C937.464 601.91 933.393 608.27 931.613 616.665C931.104 619.718 928.56 620.227 926.27 620.227C921.182 620.481 918.893 623.28 916.603 627.096C912.787 633.71 911.006 634.219 904.901 630.149C899.558 626.587 891.672 629.131 890.145 635.491C889.128 640.07 886.584 641.597 882.259 640.833C879.715 640.325 876.917 640.325 874.373 639.816C867.504 638.798 860.635 637.781 853.512 639.561C847.661 641.088 841.555 639.053 835.704 637.781C829.598 636.509 823.747 636.509 819.168 641.851C816.624 644.649 813.317 643.377 810.264 643.123C808.229 643.123 806.193 642.105 803.904 642.105C795.254 641.597 791.184 636 793.728 627.605C796.272 618.955 795.509 610.814 790.421 602.673C785.841 595.55 783.043 587.664 786.096 579.014C786.859 577.233 787.622 575.453 788.894 574.181C793.473 569.347 797.289 564.513 797.035 557.136C797.035 552.302 801.614 551.539 805.176 551.793C819.931 552.557 818.405 550.013 817.641 537.547C817.387 532.205 815.097 527.371 811.79 523.046C809.501 520.248 809.755 518.976 813.825 518.721C816.369 518.721 818.659 517.704 820.949 516.941C826.037 515.16 830.107 512.361 829.598 506.001C828.835 495.571 836.976 490.992 843.336 485.395C846.134 483.105 853.257 487.685 854.529 492.518C855.038 494.808 854.784 497.352 855.293 499.896C856.819 510.072 864.451 516.432 874.881 514.142C877.171 513.633 878.697 512.616 880.224 510.835C886.329 502.949 893.961 496.589 901.339 489.974C904.901 486.921 913.296 488.957 915.077 493.027C919.656 502.694 921.182 512.87 919.91 522.792Z" fill="#ABFF96" stroke="#182640" stroke-width="0.636" stroke-miterlimit="10"/>
<path d="M1148.36 539.328C1148.36 544.416 1146.84 548.486 1145.31 552.302C1142.76 558.917 1145.05 565.277 1146.58 571.382C1147.09 573.163 1148.36 573.926 1150.14 573.926C1152.43 574.181 1153.7 572.909 1154.72 571.128C1158.79 564.259 1160.32 556.627 1162.61 549.25C1163.63 545.688 1164.39 542.126 1165.15 538.31C1166.42 532.714 1170.49 530.424 1175.33 533.477C1177.62 534.749 1179.14 535.003 1181.69 534.494C1188.56 532.459 1190.34 533.731 1193.14 540.091C1197.72 551.794 1201.02 563.75 1204.58 575.962C1205.86 580.286 1204.08 583.848 1203.06 587.664C1200.77 597.331 1200.77 597.331 1190.34 597.331C1182.45 597.331 1182.2 597.586 1182.2 605.218C1182.2 610.306 1182.2 615.394 1184.74 620.227C1186.27 622.771 1185.76 625.061 1182.71 626.078C1179.4 627.096 1177.87 629.64 1177.36 632.947C1176.35 638.035 1173.29 639.307 1168.46 638.798C1163.88 638.035 1158.54 638.798 1159.3 631.421C1159.56 629.64 1157.77 628.368 1155.74 628.114C1148.11 627.859 1140.48 625.061 1133.35 630.658C1129.79 633.456 1125.47 631.93 1123.43 628.368C1119.36 621.754 1113.51 622.008 1107.15 623.026C1105.11 623.28 1103.08 624.552 1101.55 623.026C1097.23 618.701 1091.63 618.955 1086.54 619.718C1077.89 620.99 1072.3 617.938 1069.24 609.797C1068.48 607.507 1066.95 605.726 1064.15 605.981C1058.05 606.744 1053.22 603.946 1048.38 600.893C1044.82 598.603 1041 597.331 1036.93 598.858C1033.37 600.13 1030.32 598.603 1027.27 597.077C1022.94 595.042 1018.87 594.278 1014.55 596.059C1007.68 598.858 1000.56 598.349 993.686 598.094C990.633 598.094 988.344 598.603 986.054 600.638C981.729 604.454 977.15 606.998 971.045 606.998C966.211 606.998 961.632 609.542 959.597 614.885C958.833 617.174 957.307 618.701 955.017 616.411C949.929 611.832 944.587 613.867 939.245 615.648C937.718 616.157 936.192 617.683 934.92 616.157C933.393 614.63 934.665 612.85 935.429 611.323C938.481 604.2 945.35 600.893 954 602.165C960.869 603.182 963.921 601.91 967.229 595.805C968.755 593.261 970.027 590.971 971.808 588.682C974.097 585.883 976.133 584.611 980.457 585.12C985.291 585.629 990.125 583.085 994.195 580.541C997.502 578.506 1000.55 576.979 1004.37 576.979C1008.95 576.979 1012.26 575.453 1012.51 570.11C1012.51 569.856 1012.51 569.347 1012.77 569.093C1018.36 563.75 1021.92 555.864 1028.79 553.32C1035.66 550.776 1040.75 546.96 1045.58 542.126C1047.62 540.091 1049.4 538.31 1052.96 538.819C1060.59 539.837 1061.36 540.6 1061.61 548.486C1061.61 551.794 1062.12 555.101 1062.37 558.408C1062.88 563.75 1066.19 566.549 1070.77 568.075C1075.86 569.856 1077.89 568.584 1080.18 563.75C1084.76 554.846 1089.34 545.942 1090.87 535.766C1091.38 532.205 1094.43 529.915 1097.74 529.152C1100.79 528.643 1103.08 530.424 1104.86 532.968C1106.64 535.766 1109.95 537.547 1112.24 539.582C1116.05 542.635 1119.11 541.872 1120.63 537.038C1121.4 534.24 1121.65 531.187 1122.41 528.134C1122.92 526.099 1122.92 523.301 1125.72 522.538C1128.52 522.029 1130.81 523.301 1131.83 525.845C1133.61 529.661 1136.4 529.661 1139.71 528.643C1146.58 526.862 1146.58 527.117 1147.6 534.24C1147.6 536.275 1148.11 538.31 1148.36 539.328Z" fill="#ABFF96" stroke="#182640" stroke-width="0.636" stroke-miterlimit="10"/>
</g>
<defs>
<clipPath id="clip0_1_452">
<rect width="1272" height="880.733" fill="white"/>
</clipPath>
</defs>
</svg>
